<svg xmlns="http://www.w3.org/2000/svg" viewBox="0 0 393.36 132.28"><g data-name="Слой 2"><g data-name="Слой 1"><path class="cls-1" d="M78.61 131.05q-3-2-4.1-7.08a46.88 46.88 0 01-.54-7.32 72.58 72.58 0 01.88-10.79q1.58-10.26 3.37-18-3.7-6.45-7.74-9.37a31.8 31.8 0 00-10.81-4.69c-1.24-.42-1.93-1-2.08-1.64a8.3 8.3 0 01-.22-1.39 3.49 3.49 0 01.69-2 2.88 2.88 0 012.49-1.12 5 5 0 01.88.09 109.83 109.83 0 0016.3 1.52c1.6 0 3.29 0 5.08-.15Q89.31 45 96 25.15q-3.48 2.93-5.62 2.93a2.55 2.55 0 01-1.9-.79 3.29 3.29 0 01-1.08-2.49 3 3 0 012-2.83q3.61-1.65 8-8-23.67 5.62-46.52 13.15A343 343 0 006.2 45.46a5.46 5.46 0 01-2.29.54 4 4 0 01-1.42-.25C.83 45.26 0 44.51 0 43.51c0-.59.46-1.14 1.37-1.66a424.86 424.86 0 0149.34-20.71A461.33 461.33 0 01102.29 6.4c.79-1.44 1.5-2.87 2.15-4.3A2.85 2.85 0 01107 .24a3.25 3.25 0 012.54 1 3 3 0 01.88 2 4.3 4.3 0 01-.29 1.47Q133.35 0 149.22 0q3.56 0 6.74.24 8.53.93 11.79 5.55a16.33 16.33 0 013.25 9.49q0 8.9-7.91 15.77a3.49 3.49 0 01-2.05.79 2.28 2.28 0 01-1.13-.3 3.21 3.21 0 01-2-3.07 3.12 3.12 0 011.17-2.3c2.77-2.37 4.41-4.54 4.91-6.49a19.83 19.83 0 00.76-4.3 9.23 9.23 0 00-1.37-4.88q-2.15-3.37-7.86-4-3-.19-6.25-.19-16.65 0-41.85 5.37-3.56 9.46-8.42 24.7t-9.5 32.17A125.15 125.15 0 00125 60a3.75 3.75 0 011.22-.24c1 0 1.56.66 1.56 2a5.14 5.14 0 01-.29 1.66 4.78 4.78 0 01-2.64 2.58 118.09 118.09 0 01-37.11 9.1q-1.56 6-2.88 11.86a61.5 61.5 0 014.74 12.33 54.62 54.62 0 012.15 11.09c.13 2.68.19 4.35.19 5a29.81 29.81 0 01-1.8 10.62c-1.34 3-2.76 4.82-4.28 5.39a10.85 10.85 0 01-3.49.86 6.61 6.61 0 01-3.76-1.2zm2.49-55.56l-4.59.05a34.4 34.4 0 013.62 4zm3.13 48.34a25.22 25.22 0 001.37-8.55 42.31 42.31 0 00-.25-4.39 62.07 62.07 0 00-2.73-13q-1.08 5.41-1.76 10.89a73.18 73.18 0 00-.68 8.74 34 34 0 00.44 5.71c.29 1.53.62 2.37 1 2.52a3.27 3.27 0 00.7.22c.62-.04 1.26-.74 1.91-2.14z"/><path class="cls-2" d="M152.15 114.55q-5.42-2-7-6a21.75 21.75 0 01-1.59-8 22.89 22.89 0 01.14-2.55 44.94 44.94 0 01-10 6.49 27.24 27.24 0 01-11.4 2.84q-5.47-.3-6.45-3.06a14.35 14.35 0 01-1-4.56 12.87 12.87 0 011.08-5q3.36-7.47 8.15-9.28a23.16 23.16 0 017.52-1.81 18.19 18.19 0 018.89 2.54 2.93 2.93 0 011.61 2.44 3.09 3.09 0 01-1.22 2.74 3.44 3.44 0 01-1.81.68 4 4 0 01-1.76-.44 11.45 11.45 0 00-5.57-1.58 9.78 9.78 0 00-3.52.68 11.79 11.79 0 00-6.49 6.5 6.39 6.39 0 00-.69 2.54 1.16 1.16 0 001.27 1.27 21.36 21.36 0 009.69-2.67 40.35 40.35 0 009.11-6.57 29.59 29.59 0 006.18-8.11c.61-1.14 1.21-1.71 1.78-1.73h.9a3.41 3.41 0 012.59 1.18 2.66 2.66 0 01.73 1.9 4 4 0 01-.19 1.17q-.74 1.91-1.69 5.18a36.15 36.15 0 00-1.26 5.66 32.89 32.89 0 00-.3 3.57 14.48 14.48 0 00.54 4q1.32 4.44 7.47 4.44A18.93 18.93 0 00164 108a50.59 50.59 0 0011.09-5.54 84.85 84.85 0 0010.08-7.67 59.74 59.74 0 006.91-7 3.33 3.33 0 012.39-1.37 1.92 1.92 0 012.15 2.2q0 2.43-9.08 11a83.83 83.83 0 01-11.13 8.79q-10.56 7-18.95 7a18.32 18.32 0 01-5.31-.86z"/><path class="cls-3" d="M207.13 114.45q-5.72-1.36-6.86-5.69a28.13 28.13 0 01-1.15-6.86q0-6 2.83-15.08c-.49-.23-1-.48-1.41-.74q-1 1.42-6.5 7.77l-.19.14a2.13 2.13 0 01-1.52.88 1.27 1.27 0 01-.92-.44 3 3 0 01-1.08-2.07c0-.73-.05-1.15-.05-1.25a5.44 5.44 0 011.22-3.41q1.13-1.32 3.71-5-4.49-3.92-5.05-6.82a25.58 25.58 0 01-.56-4.37 13.82 13.82 0 011-5.27 19.47 19.47 0 019.71-10.35 10.52 10.52 0 014.15-1 5.75 5.75 0 015.62 3.66 6.69 6.69 0 01.34 2.3q0 5.37-3.81 14.21-1.21 2.78-2.78 5.66c.94.46 2 .91 3.1 1.37s1.74 1 1.85 1.54a6.67 6.67 0 01.17 1.29 4.78 4.78 0 01-.39 1.86q-3.08 8.88-3.07 14.06a13.24 13.24 0 00.29 2.88q1.27 5.22 3.91 5.4c1.75.11 2.76.17 3 .17a24.42 24.42 0 0010.45-2.88 71.11 71.11 0 0012.87-8.23 69 69 0 0010.82-10.48 3.25 3.25 0 012.44-1.37c1.56.1 2.34.86 2.34 2.29a3.9 3.9 0 01-.88 2.25 73.85 73.85 0 01-14.18 13.52 59.44 59.44 0 01-14.55 8.16 33.61 33.61 0 01-10.84 2.34 17.58 17.58 0 01-4.03-.44zM201 72.07c1-2.25 1.83-4.31 2.46-6.2a14.7 14.7 0 00.95-4.1 2.4 2.4 0 00-.09-.69h-.1a4.17 4.17 0 00-1.37.63 16.27 16.27 0 00-3 2.32 13.88 13.88 0 00-2.71 3.49 8.09 8.09 0 00-1.08 4 8.33 8.33 0 002.59 5.61q.82-1.68 2.35-5.06z"/><path class="cls-4" d="M260.25 125.59q-4.29-1-4.29-5.62a11.69 11.69 0 01.63-3.56 32.87 32.87 0 017.08-10.7 64.45 64.45 0 019.77-8.44l.05-.93a6.12 6.12 0 00-1.08-4 1.88 1.88 0 00-1.56-.68 6.5 6.5 0 00-2.83.88 24.8 24.8 0 00-8.64 8.42 36.54 36.54 0 00-5 11.21 3.08 3.08 0 01-3.13 2.59 3 3 0 01-3-2.3 53.84 53.84 0 01-1.36-12.69 135.81 135.81 0 01.83-14.8 208.61 208.61 0 017.22-37.35q6.8-24 17.78-36.62a28.37 28.37 0 0113.51-9.1 23.42 23.42 0 015.91-.9 7.59 7.59 0 014.2 1q3.12 2 3.17 6.4a27.53 27.53 0 01-2.15 9.91A161.66 161.66 0 01283.94 44q-8.2 12.87-16.9 25-8.94 12.58-11.33 16.84a20.37 20.37 0 00-2.24 5.27q-.25 4.2-.25 7.82A34.6 34.6 0 01263.33 88a14.54 14.54 0 017.67-2.5q6.75 0 8.45 8a46.49 46.49 0 0111.44-4.5 79.67 79.67 0 0113.33-2.1q7.2-.57 15.7-.56c1.11 0 1.74.26 1.91.78a4.49 4.49 0 01.24 1.22 2.56 2.56 0 01-.49 1.46 2.89 2.89 0 01-2.44 1.2h-2.39a75.8 75.8 0 00-19.92 2.44 60.54 60.54 0 00-17.34 7.42 43.44 43.44 0 01-2.37 8.91 39.57 39.57 0 01-4.61 8.91 18.59 18.59 0 01-6.54 6.06 10.23 10.23 0 01-4.2 1 8.42 8.42 0 01-1.52-.15zm4.15-63.19q8.6-12.49 16.73-25.71t11.45-23.56a13.2 13.2 0 00.73-3.71 2.6 2.6 0 00-.39-1.49c-.26-.37-.83-.56-1.71-.56a12.78 12.78 0 00-3.32.59q-7.51 2.34-13.21 10.37A81.56 81.56 0 00265 37.16a175.81 175.81 0 00-6.47 21.36q-2.47 10.57-3.53 17.94 4.13-6.34 9.4-14.06zm1.69 54.4a27.12 27.12 0 003.29-5.15 47.58 47.58 0 002.1-4.72 52.47 52.47 0 00-5.39 5.72 18.58 18.58 0 00-3.83 6.73 6.38 6.38 0 003.83-2.58z"/><path class="cls-5" d="M348.88 114.55q-5.43-2-7-6a21.75 21.75 0 01-1.59-8 22.89 22.89 0 01.15-2.59 44.94 44.94 0 01-10 6.49 27.25 27.25 0 01-11.44 2.83q-5.46-.3-6.44-3.06a14.35 14.35 0 01-1-4.56 12.87 12.87 0 011.08-5q3.36-7.47 8.15-9.28a23.16 23.16 0 017.52-1.81 18.19 18.19 0 018.89 2.54 2.93 2.93 0 011.61 2.44 3.09 3.09 0 01-1.22 2.74 3.47 3.47 0 01-1.81.68 4 4 0 01-1.76-.44 11.45 11.45 0 00-5.55-1.53 9.74 9.74 0 00-3.52.68 11.76 11.76 0 00-6.49 6.5 6.39 6.39 0 00-.69 2.54A1.16 1.16 0 00319 101a21.36 21.36 0 009.67-2.66 40.35 40.35 0 009.11-6.57 29.35 29.35 0 006.22-8.13c.62-1.14 1.22-1.71 1.79-1.73h.9a3.41 3.41 0 012.59 1.18A2.66 2.66 0 01350 85a4 4 0 01-.2 1.17c-.48 1.27-1.05 3-1.68 5.18a36.15 36.15 0 00-1.24 5.65 32.89 32.89 0 00-.3 3.57 14.48 14.48 0 00.54 4q1.32 4.44 7.47 4.44a18.93 18.93 0 006.15-1.12 50.59 50.59 0 0011.09-5.54 84.85 84.85 0 0010.08-7.67 59.74 59.74 0 006.91-7 3.33 3.33 0 012.39-1.37 1.92 1.92 0 012.15 2.2q0 2.43-9.08 11a83.94 83.94 0 01-11.14 8.79q-10.54 7-18.94 7a18.32 18.32 0 01-5.32-.75z"/></g></g></svg>