<svg xmlns="http://www.w3.org/2000/svg" xmlns:xlink="http://www.w3.org/1999/xlink" viewBox="0 0 397.68 297.97"><defs><style>.cls-1{fill:#fff;}.cls-2,.cls-8{fill:none;stroke:#fff;stroke-miterlimit:10;}.cls-2{stroke-width:12px;}.cls-3{fill:url(#Безымянный_градиент_74);}.cls-4{fill:url(#Безымянный_градиент_74-2);}.cls-5{fill:url(#Безымянный_градиент_74-3);}.cls-6{fill:url(#Безымянный_градиент_74-4);}.cls-7{fill:url(#Безымянный_градиент_74-5);}</style><linearGradient id="Безымянный_градиент_74" y1="125.15" x2="171" y2="125.15" gradientUnits="userSpaceOnUse"><stop offset="0" stop-color="#e9c88c"/><stop offset="0.11" stop-color="#e4bf84"/><stop offset="0.3" stop-color="#d8a570"/><stop offset="0.47" stop-color="#ca8a5a"/><stop offset="0.72" stop-color="#a87e54"/><stop offset="1" stop-color="#ca854b"/></linearGradient><linearGradient id="Безымянный_градиент_74-2" x1="114.84" y1="157.62" x2="196.63" y2="157.62" xlink:href="#Безымянный_градиент_74"/><linearGradient id="Безымянный_градиент_74-3" x1="189.6" y1="143.9" x2="251.61" y2="143.9" xlink:href="#Безымянный_градиент_74"/><linearGradient id="Безымянный_градиент_74-4" x1="246.83" y1="122.36" x2="322.07" y2="122.36" xlink:href="#Безымянный_градиент_74"/><linearGradient id="Безымянный_градиент_74-5" x1="311.57" y1="157.62" x2="393.36" y2="157.62" xlink:href="#Безымянный_градиент_74"/></defs><title>Ресурс 1</title><g id="Слой_2" data-name="Слой 2"><g id="Слой_1-2" data-name="Слой 1"><path class="cls-1" d="M106.36,269.48H100.5v-18.9h5.86a10.31,10.31,0,0,1,7.37,2.62,9.71,9.71,0,0,1,0,13.66A10.31,10.31,0,0,1,106.36,269.48Zm-4.62-17.74v16.58h4.4a9.45,9.45,0,0,0,6.67-2.27,8.61,8.61,0,0,0,0-12,9.45,9.45,0,0,0-6.67-2.27Z"/><path class="cls-1" d="M134.47,269.48H121.4v-18.9H134v1.16H122.64v7h9.42v1.16h-9.42v8.42h11.83Z"/><path class="cls-1" d="M144,269.81a13.27,13.27,0,0,1-3.92-.58,9.3,9.3,0,0,1-3-1.44v-1.43a10,10,0,0,0,2.89,1.59,11,11,0,0,0,3.92.68,6.89,6.89,0,0,0,4-1.11,3.44,3.44,0,0,0,1.59-3A3.33,3.33,0,0,0,148.4,262a4.86,4.86,0,0,0-1.3-.78,11,11,0,0,0-1.51-.59q-.38-.13-1.78-.51l-2-.59q-1-.38-1.65-.7a4.6,4.6,0,0,1-1.84-1.53,4.86,4.86,0,0,1-.65-2.39,4.09,4.09,0,0,1,1.65-3.32,7.16,7.16,0,0,1,4.62-1.35,10.28,10.28,0,0,1,5.72,1.59v1.32a9.93,9.93,0,0,0-5.67-1.73,6.19,6.19,0,0,0-3.75,1,3.07,3.07,0,0,0,.19,5.17,6.34,6.34,0,0,0,1.05.51,11.57,11.57,0,0,0,1.16.41l1.3.38.57.16,1.84.57a9.36,9.36,0,0,1,1.65.7,5.07,5.07,0,0,1,1.49,1,4.4,4.4,0,0,1,1.3,3.24,4.51,4.51,0,0,1-2,3.89A8.26,8.26,0,0,1,144,269.81Z"/><path class="cls-1" d="M156.85,269.48h-1.24v-18.9h1.24Z"/><path class="cls-1" d="M171.35,269.81a9.07,9.07,0,0,1-6.75-2.75,10.36,10.36,0,0,1,0-14,9,9,0,0,1,6.75-2.78,9.6,9.6,0,0,1,6.16,2v1.32a9.56,9.56,0,0,0-6.08-2.11,7.89,7.89,0,0,0-5.91,2.46,9.13,9.13,0,0,0,0,12.29,8.62,8.62,0,0,0,11.8.19v-7.72h1.24v8.18A9.32,9.32,0,0,1,171.35,269.81Z"/><path class="cls-1" d="M185,269.48h-1.24v-18.9h1.11l12.88,16.74V250.58H199v18.9h-1.08L185,252.72Z"/><path class="cls-1" d="M222.51,251.77v1.38a6.69,6.69,0,0,0-4.43-1.75,4.5,4.5,0,0,0-2.93.89,3,3,0,0,0-1.09,2.43q0,1.94,2.21,4.08l7.1,6.8a10.94,10.94,0,0,0,1.86-6.13h1.21a12,12,0,0,1-2.24,7l3.21,3.05h-1.7l-2.27-2.16a8.16,8.16,0,0,1-6.13,2.48,7.64,7.64,0,0,1-4.78-1.59,5.79,5.79,0,0,1-.84-7.91,6.49,6.49,0,0,1,2.59-1.94,5.55,5.55,0,0,1-1.48-3.67,4,4,0,0,1,1.46-3.21,5.46,5.46,0,0,1,3.62-1.22A7.23,7.23,0,0,1,222.51,251.77Zm-5.18,16.9a7.08,7.08,0,0,0,5.29-2.16l-7.53-7.26a5,5,0,0,0-2.32,1.62,4.77,4.77,0,0,0,.59,6.48A5.94,5.94,0,0,0,217.33,268.67Z"/><path class="cls-1" d="M239.41,269.48h-1.24v-18.9h8.37a6.17,6.17,0,0,1,4.21,1.35,4.57,4.57,0,0,1,1.54,3.62,4.73,4.73,0,0,1-1.24,3.38,5.46,5.46,0,0,1-3.46,1.59l6.21,9h-1.46l-6.18-8.88h-6.75Zm0-17.74v7.69h7a5.21,5.21,0,0,0,3.4-1,3.93,3.93,0,0,0,0-5.68,5.16,5.16,0,0,0-3.4-1Z"/><path class="cls-1" d="M271.11,269.48H258v-18.9h12.64v1.16H259.29v7h9.42v1.16h-9.42v8.42h11.83Z"/><path class="cls-1" d="M276.48,269.48h-1.24v-18.9h7.86a6.22,6.22,0,0,1,4.28,1.38,5.2,5.2,0,0,1,0,7.41,6.18,6.18,0,0,1-4.28,1.39h-6.62Zm0-17.74v7.86H283a5.26,5.26,0,0,0,3.47-1,4,4,0,0,0,0-5.8,5.27,5.27,0,0,0-3.47-1Z"/><path class="cls-1" d="M292.58,269.48h-1.32l8.59-19H301l8.53,19h-1.3l-2.51-5.56H295.09Zm7.83-17.39-4.89,10.75h9.75Z"/><path class="cls-1" d="M314.69,269.48h-1.24v-18.9h1.24Z"/><path class="cls-1" d="M321.76,269.48h-1.24v-18.9h8.37a6.17,6.17,0,0,1,4.21,1.35,4.57,4.57,0,0,1,1.54,3.62,4.73,4.73,0,0,1-1.24,3.38,5.46,5.46,0,0,1-3.46,1.59l6.21,9h-1.46l-6.18-8.88h-6.75Zm0-17.74v7.69h7a5.21,5.21,0,0,0,3.4-1,3.93,3.93,0,0,0,0-5.68,5.16,5.16,0,0,0-3.4-1Z"/><polygon class="cls-2" points="391.68 291.97 41.95 291.97 41.95 110.53 216.81 6.97 391.68 110.53 391.68 291.97"/><path class="cls-3" d="M78.61,190.06q-3-2-4.1-7.08a47.19,47.19,0,0,1-.54-7.32,71.78,71.78,0,0,1,.88-10.79q1.56-10.25,3.37-18-3.71-6.45-7.74-9.37a32,32,0,0,0-10.82-4.69q-1.86-.63-2.08-1.64a7.74,7.74,0,0,1-.22-1.39,3.52,3.52,0,0,1,.68-2.05,2.9,2.9,0,0,1,2.49-1.12,4.5,4.5,0,0,1,.88.1,109.94,109.94,0,0,0,16.31,1.51q2.39,0,5.08-.15Q89.31,104,96,84.16q-3.47,2.93-5.62,2.93a2.59,2.59,0,0,1-1.9-.78,3.31,3.31,0,0,1-1.07-2.49A3,3,0,0,1,89.45,81q3.61-1.66,8-8Q73.73,78.59,50.88,86.13A344,344,0,0,0,6.2,104.47a5.48,5.48,0,0,1-2.29.54,4.17,4.17,0,0,1-1.42-.24Q0,104,0,102.52q0-.88,1.37-1.66a426.11,426.11,0,0,1,49.34-20.7,461.85,461.85,0,0,1,51.59-14.75q1.17-2.15,2.15-4.3A2.85,2.85,0,0,1,107,59.25a3.24,3.24,0,0,1,2.54,1,3,3,0,0,1,.88,2,4.18,4.18,0,0,1-.29,1.46Q133.35,59,149.22,59q3.56,0,6.74.24,8.54.93,11.79,5.54a16.32,16.32,0,0,1,3.25,9.5q0,8.89-7.91,15.77a3.53,3.53,0,0,1-2.05.78,2.31,2.31,0,0,1-1.12-.29,3.22,3.22,0,0,1-2.05-3.08A3.11,3.11,0,0,1,159,85.18q4.15-3.56,4.91-6.49a19.41,19.41,0,0,0,.76-4.3,9.22,9.22,0,0,0-1.37-4.88q-2.15-3.37-7.86-4-3-.19-6.25-.2-16.65,0-41.85,5.37Q103.86,80.15,99,95.39t-9.5,32.18A125.57,125.57,0,0,0,125,119a3.67,3.67,0,0,1,1.22-.24q1.56,0,1.56,2a5.26,5.26,0,0,1-.29,1.66,4.77,4.77,0,0,1-2.59,2.64,117.92,117.92,0,0,1-37.11,9.08q-1.56,6.05-2.88,11.87A61.7,61.7,0,0,1,89.6,158.3a54.44,54.44,0,0,1,2.15,11.08q.19,4,.2,5A29.69,29.69,0,0,1,90.14,185q-2,4.54-4.27,5.4a10.89,10.89,0,0,1-3.49.85A6.62,6.62,0,0,1,78.61,190.06ZM81.1,134.5l-4.59,0a35.25,35.25,0,0,1,3.61,4Zm3.13,48.34a25.17,25.17,0,0,0,1.37-8.54,41.64,41.64,0,0,0-.24-4.39,62.36,62.36,0,0,0-2.73-13q-1.07,5.42-1.76,10.89a74.09,74.09,0,0,0-.68,8.74,34.8,34.8,0,0,0,.44,5.71q.44,2.29,1,2.51a2.87,2.87,0,0,0,.71.22Q83.25,184.94,84.23,182.84Z"/><path class="cls-4" d="M152.15,173.56q-5.42-2-7-6.05a21.73,21.73,0,0,1-1.59-8,23.42,23.42,0,0,1,.15-2.59,45.1,45.1,0,0,1-10,6.49,27.21,27.21,0,0,1-11.4,2.83q-5.47-.29-6.45-3.05a14.31,14.31,0,0,1-1-4.57,13,13,0,0,1,1.07-5q3.37-7.47,8.15-9.28a23,23,0,0,1,7.52-1.81,18.15,18.15,0,0,1,8.89,2.54,2.92,2.92,0,0,1,1.61,2.44,3.07,3.07,0,0,1-1.22,2.73,3.39,3.39,0,0,1-1.81.68,4.11,4.11,0,0,1-1.76-.44,11.47,11.47,0,0,0-5.57-1.56,9.63,9.63,0,0,0-3.52.68,11.76,11.76,0,0,0-6.49,6.49,6.46,6.46,0,0,0-.68,2.54,1.15,1.15,0,0,0,1.27,1.27,21.25,21.25,0,0,0,9.67-2.66,39.86,39.86,0,0,0,9.11-6.57,29.5,29.5,0,0,0,6.18-8.11q.93-1.71,1.78-1.73l.9,0a3.39,3.39,0,0,1,2.59,1.17,2.68,2.68,0,0,1,.73,1.9,4,4,0,0,1-.2,1.17q-.73,1.9-1.68,5.18a36.38,36.38,0,0,0-1.25,5.71,33.57,33.57,0,0,0-.29,3.56,14.52,14.52,0,0,0,.54,4.05q1.32,4.44,7.47,4.44A19,19,0,0,0,164,167a50.39,50.39,0,0,0,11.08-5.54,84.82,84.82,0,0,0,10.08-7.67,59,59,0,0,0,6.91-7.06,3.36,3.36,0,0,1,2.39-1.37,1.92,1.92,0,0,1,2.15,2.2q0,2.44-9.08,11a83.88,83.88,0,0,1-11.13,8.79q-10.55,7-18.95,7A18.32,18.32,0,0,1,152.15,173.56Z"/><path class="cls-5" d="M207.13,173.46q-5.71-1.37-6.86-5.69a28.41,28.41,0,0,1-1.15-6.86q0-6,2.83-15.09-.73-.34-1.42-.73-1,1.42-6.49,7.76l-.2.15a2.14,2.14,0,0,1-1.51.88,1.31,1.31,0,0,1-.93-.44,3.06,3.06,0,0,1-1.07-2.08q0-1.1,0-1.25a5.43,5.43,0,0,1,1.22-3.42q1.12-1.32,3.71-5-4.49-3.91-5.05-6.81a25.32,25.32,0,0,1-.56-4.37,14,14,0,0,1,1-5.27,19.5,19.5,0,0,1,9.72-10.35,10.48,10.48,0,0,1,4.15-1,5.74,5.74,0,0,1,5.62,3.66,6.44,6.44,0,0,1,.34,2.29q0,5.37-3.81,14.21-1.22,2.78-2.78,5.66,1.42.68,3.1,1.37t1.86,1.54a7.22,7.22,0,0,1,.17,1.29,4.75,4.75,0,0,1-.39,1.86q-3.08,8.89-3.08,14.06a12.86,12.86,0,0,0,.29,2.88q1.27,5.23,3.91,5.4t3,.17a24.41,24.41,0,0,0,10.45-2.88,70.87,70.87,0,0,0,12.87-8.23,68.83,68.83,0,0,0,10.77-10.47,3.28,3.28,0,0,1,2.44-1.37q2.34.15,2.34,2.29a3.94,3.94,0,0,1-.88,2.25,74,74,0,0,1-14.18,13.53A59.68,59.68,0,0,1,222,171.56a33.6,33.6,0,0,1-10.84,2.34A18,18,0,0,1,207.13,173.46ZM201,131.08q1.51-3.37,2.47-6.2a14.86,14.86,0,0,0,1-4.1,2.17,2.17,0,0,0-.1-.68l-.1,0a4.16,4.16,0,0,0-1.37.63,16.45,16.45,0,0,0-3,2.32,14.07,14.07,0,0,0-2.71,3.49,8.12,8.12,0,0,0-1.07,4,8.31,8.31,0,0,0,2.59,5.62Q199.46,134.45,201,131.08Z"/><path class="cls-6" d="M260.25,184.6q-4.3-1-4.3-5.62a11.62,11.62,0,0,1,.63-3.56,32.7,32.7,0,0,1,7.08-10.69,64.49,64.49,0,0,1,9.77-8.45l0-.93a6.14,6.14,0,0,0-1.07-4,1.87,1.87,0,0,0-1.56-.68,6.56,6.56,0,0,0-2.83.88,24.88,24.88,0,0,0-8.64,8.42,36.74,36.74,0,0,0-5,11.21,3.07,3.07,0,0,1-3.12,2.59,3,3,0,0,1-3-2.29,53.83,53.83,0,0,1-1.37-12.7,137.54,137.54,0,0,1,.83-14.79,208.78,208.78,0,0,1,7.23-37.35q6.79-24,17.77-36.62a28.39,28.39,0,0,1,13.57-9.08,23.08,23.08,0,0,1,5.91-.93,7.56,7.56,0,0,1,4.2,1q3.12,2,3.17,6.4a27.7,27.7,0,0,1-2.15,9.91A161.23,161.23,0,0,1,283.94,103q-8.2,12.87-16.89,25-8.94,12.6-11.33,16.85a20.26,20.26,0,0,0-2.25,5.27q-.24,4.2-.24,7.81A34.6,34.6,0,0,1,263.33,147a14.62,14.62,0,0,1,7.71-2.54q6.74,0,8.45,8a46.84,46.84,0,0,1,11.4-4.47,80.45,80.45,0,0,1,13.33-2.1q7.2-.56,15.7-.56,1.66,0,1.9.78a4.42,4.42,0,0,1,.24,1.22,2.63,2.63,0,0,1-.49,1.46,2.88,2.88,0,0,1-2.44,1.17l-2.39,0a75.89,75.89,0,0,0-19.92,2.44,60.42,60.42,0,0,0-17.33,7.42,43.63,43.63,0,0,1-2.37,8.91,40.22,40.22,0,0,1-4.61,8.91,18.52,18.52,0,0,1-6.54,6.05,10.16,10.16,0,0,1-4.2,1A7.7,7.7,0,0,1,260.25,184.6Zm4.15-63.18q8.59-12.5,16.72-25.71t11.45-23.56a13.3,13.3,0,0,0,.73-3.71,2.56,2.56,0,0,0-.39-1.49q-.39-.56-1.71-.56a12.72,12.72,0,0,0-3.32.59q-7.52,2.34-13.21,10.38A81.37,81.37,0,0,0,265,96.17a176.92,176.92,0,0,0-6.47,21.36q-2.47,10.57-3.49,17.94Q259.13,129.13,264.4,121.41Zm1.68,54.39a27.09,27.09,0,0,0,3.3-5.15,50.28,50.28,0,0,0,2.1-4.71,51.19,51.19,0,0,0-5.4,5.71,18.71,18.71,0,0,0-3.83,6.74A6.43,6.43,0,0,0,266.09,175.81Z"/><path class="cls-7" d="M348.88,173.56q-5.42-2-7-6.05a21.73,21.73,0,0,1-1.59-8,23.42,23.42,0,0,1,.15-2.59,45.1,45.1,0,0,1-10,6.49,27.21,27.21,0,0,1-11.4,2.83q-5.47-.29-6.45-3.05a14.31,14.31,0,0,1-1-4.57,13,13,0,0,1,1.07-5q3.37-7.47,8.15-9.28a23,23,0,0,1,7.52-1.81,18.15,18.15,0,0,1,8.89,2.54,2.92,2.92,0,0,1,1.61,2.44,3.07,3.07,0,0,1-1.22,2.73,3.39,3.39,0,0,1-1.81.68,4.11,4.11,0,0,1-1.76-.44,11.47,11.47,0,0,0-5.57-1.56,9.63,9.63,0,0,0-3.52.68,11.76,11.76,0,0,0-6.49,6.49,6.46,6.46,0,0,0-.68,2.54A1.15,1.15,0,0,0,319,160a21.25,21.25,0,0,0,9.67-2.66,39.86,39.86,0,0,0,9.11-6.57,29.5,29.5,0,0,0,6.18-8.11q.93-1.71,1.78-1.73l.9,0a3.39,3.39,0,0,1,2.59,1.17A2.68,2.68,0,0,1,350,144a4,4,0,0,1-.2,1.17q-.73,1.9-1.68,5.18a36.38,36.38,0,0,0-1.25,5.71,33.57,33.57,0,0,0-.29,3.56,14.52,14.52,0,0,0,.54,4.05q1.32,4.44,7.47,4.44a19,19,0,0,0,6.15-1.12,50.39,50.39,0,0,0,11.08-5.54,84.82,84.82,0,0,0,10.08-7.67,59,59,0,0,0,6.91-7.06,3.36,3.36,0,0,1,2.39-1.37,1.92,1.92,0,0,1,2.15,2.2q0,2.44-9.08,11a83.88,83.88,0,0,1-11.13,8.79q-10.55,7-18.95,7A18.32,18.32,0,0,1,348.88,173.56Z"/><line class="cls-8" x1="99.68" y1="230.47" x2="334.68" y2="230.47"/></g></g></svg>